<?xml version="1.0" encoding="utf-8" standalone="no"?>
<!DOCTYPE svg PUBLIC "-//W3C//DTD SVG 1.1//EN"
  "http://www.w3.org/Graphics/SVG/1.1/DTD/svg11.dtd">
<svg xmlns:xlink="http://www.w3.org/1999/xlink" width="358.1559pt" height="282.553838pt" viewBox="0 0 358.1559 282.553838" xmlns="http://www.w3.org/2000/svg" version="1.1">
 <metadata>
  <rdf:RDF xmlns:dc="http://purl.org/dc/elements/1.1/" xmlns:cc="http://creativecommons.org/ns#" xmlns:rdf="http://www.w3.org/1999/02/22-rdf-syntax-ns#">
   <cc:Work>
    <dc:type rdf:resource="http://purl.org/dc/dcmitype/StillImage"/>
    <dc:date>2026-08-03T03:33:31.931456</dc:date>
    <dc:format>image/svg+xml</dc:format>
    <dc:creator>
     <cc:Agent>
      <dc:title>Matplotlib v3.10.8, https://matplotlib.org/</dc:title>
     </cc:Agent>
    </dc:creator>
   </cc:Work>
  </rdf:RDF>
 </metadata>
 <defs>
  <style type="text/css">*{stroke-linejoin: round; stroke-linecap: butt}</style>
 </defs>
 <g id="figure_1">
  <g id="patch_1">
   <path d="M 0 282.553838
L 358.1559 282.553838
L 358.1559 0
L 0 0
z
" style="fill: #ffffff"/>
  </g>
  <g id="axes_1">
   <g id="patch_2">
    <path d="M 41.2659 249.09165
L 350.9559 249.09165
L 350.9559 27.33165
L 41.2659 27.33165
z
" style="fill: #ffffff"/>
   </g>
   <g id="line2d_1">
    <path d="M 41.2659 235.961124
L 350.9559 235.961124
" clip-path="url(#p73df8efa5d)" style="fill: none; stroke-dasharray: 2.7,2.7; stroke-dashoffset: 0; stroke: #888888; stroke-width: 0.9"/>
   </g>
   <g id="line2d_2">
    <path d="M 50.374429 249.09165
L 50.374429 27.33165
" clip-path="url(#p73df8efa5d)" style="fill: none; stroke-dasharray: 2.7,2.7; stroke-dashoffset: 0; stroke: #888888; stroke-width: 0.9"/>
   </g>
   <g id="matplotlib.axis_1">
    <g id="xtick_1">
     <g id="line2d_3">
      <path d="M 50.374429 249.09165
L 50.374429 27.33165
" clip-path="url(#p73df8efa5d)" style="fill: none; stroke: #d6d6d6; stroke-opacity: 0.7; stroke-width: 0.6; stroke-linecap: square"/>
     </g>
     <g id="line2d_4">
      <defs>
       <path id="m50f17c2e08" d="M 0 0
L 0 3
" style="stroke: #000000; stroke-width: 0.8"/>
      </defs>
      <g>
       <use xlink:href="#m50f17c2e08" x="50.374429" y="249.09165" style="stroke: #000000; stroke-width: 0.8"/>
      </g>
     </g>
     <g id="text_1">
      <text style="font-size: 8px; font-family: 'Arial', 'Helvetica', 'DejaVu Sans', sans-serif; text-anchor: middle" x="50.374429" y="261.3179" transform="rotate(-0 50.374429 261.3179)">0</text>
     </g>
    </g>
    <g id="xtick_2">
     <g id="line2d_5">
      <path d="M 95.917076 249.09165
L 95.917076 27.33165
" clip-path="url(#p73df8efa5d)" style="fill: none; stroke: #d6d6d6; stroke-opacity: 0.7; stroke-width: 0.6; stroke-linecap: square"/>
     </g>
     <g id="line2d_6">
      <g>
       <use xlink:href="#m50f17c2e08" x="95.917076" y="249.09165" style="stroke: #000000; stroke-width: 0.8"/>
      </g>
     </g>
     <g id="text_2">
      <text style="font-size: 8px; font-family: 'Arial', 'Helvetica', 'DejaVu Sans', sans-serif; text-anchor: middle" x="95.917076" y="261.3179" transform="rotate(-0 95.917076 261.3179)">10</text>
     </g>
    </g>
    <g id="xtick_3">
     <g id="line2d_7">
      <path d="M 141.459724 249.09165
L 141.459724 27.33165
" clip-path="url(#p73df8efa5d)" style="fill: none; stroke: #d6d6d6; stroke-opacity: 0.7; stroke-width: 0.6; stroke-linecap: square"/>
     </g>
     <g id="line2d_8">
      <g>
       <use xlink:href="#m50f17c2e08" x="141.459724" y="249.09165" style="stroke: #000000; stroke-width: 0.8"/>
      </g>
     </g>
     <g id="text_3">
      <text style="font-size: 8px; font-family: 'Arial', 'Helvetica', 'DejaVu Sans', sans-serif; text-anchor: middle" x="141.459724" y="261.3179" transform="rotate(-0 141.459724 261.3179)">20</text>
     </g>
    </g>
    <g id="xtick_4">
     <g id="line2d_9">
      <path d="M 187.002371 249.09165
L 187.002371 27.33165
" clip-path="url(#p73df8efa5d)" style="fill: none; stroke: #d6d6d6; stroke-opacity: 0.7; stroke-width: 0.6; stroke-linecap: square"/>
     </g>
     <g id="line2d_10">
      <g>
       <use xlink:href="#m50f17c2e08" x="187.002371" y="249.09165" style="stroke: #000000; stroke-width: 0.8"/>
      </g>
     </g>
     <g id="text_4">
      <text style="font-size: 8px; font-family: 'Arial', 'Helvetica', 'DejaVu Sans', sans-serif; text-anchor: middle" x="187.002371" y="261.3179" transform="rotate(-0 187.002371 261.3179)">30</text>
     </g>
    </g>
    <g id="xtick_5">
     <g id="line2d_11">
      <path d="M 232.545018 249.09165
L 232.545018 27.33165
" clip-path="url(#p73df8efa5d)" style="fill: none; stroke: #d6d6d6; stroke-opacity: 0.7; stroke-width: 0.6; stroke-linecap: square"/>
     </g>
     <g id="line2d_12">
      <g>
       <use xlink:href="#m50f17c2e08" x="232.545018" y="249.09165" style="stroke: #000000; stroke-width: 0.8"/>
      </g>
     </g>
     <g id="text_5">
      <text style="font-size: 8px; font-family: 'Arial', 'Helvetica', 'DejaVu Sans', sans-serif; text-anchor: middle" x="232.545018" y="261.3179" transform="rotate(-0 232.545018 261.3179)">40</text>
     </g>
    </g>
    <g id="xtick_6">
     <g id="line2d_13">
      <path d="M 278.087665 249.09165
L 278.087665 27.33165
" clip-path="url(#p73df8efa5d)" style="fill: none; stroke: #d6d6d6; stroke-opacity: 0.7; stroke-width: 0.6; stroke-linecap: square"/>
     </g>
     <g id="line2d_14">
      <g>
       <use xlink:href="#m50f17c2e08" x="278.087665" y="249.09165" style="stroke: #000000; stroke-width: 0.8"/>
      </g>
     </g>
     <g id="text_6">
      <text style="font-size: 8px; font-family: 'Arial', 'Helvetica', 'DejaVu Sans', sans-serif; text-anchor: middle" x="278.087665" y="261.3179" transform="rotate(-0 278.087665 261.3179)">50</text>
     </g>
    </g>
    <g id="xtick_7">
     <g id="line2d_15">
      <path d="M 323.630312 249.09165
L 323.630312 27.33165
" clip-path="url(#p73df8efa5d)" style="fill: none; stroke: #d6d6d6; stroke-opacity: 0.7; stroke-width: 0.6; stroke-linecap: square"/>
     </g>
     <g id="line2d_16">
      <g>
       <use xlink:href="#m50f17c2e08" x="323.630312" y="249.09165" style="stroke: #000000; stroke-width: 0.8"/>
      </g>
     </g>
     <g id="text_7">
      <text style="font-size: 8px; font-family: 'Arial', 'Helvetica', 'DejaVu Sans', sans-serif; text-anchor: middle" x="323.630312" y="261.3179" transform="rotate(-0 323.630312 261.3179)">60</text>
     </g>
    </g>
    <g id="text_8">
     <text style="font-size: 9px; font-family: 'Arial', 'Helvetica', 'DejaVu Sans', sans-serif; text-anchor: middle" x="196.1109" y="273.459619" transform="rotate(-0 196.1109 273.459619)">Failure rate (%)</text>
    </g>
   </g>
   <g id="matplotlib.axis_2">
    <g id="ytick_1">
     <g id="line2d_17">
      <path d="M 41.2659 235.961124
L 350.9559 235.961124
" clip-path="url(#p73df8efa5d)" style="fill: none; stroke: #d6d6d6; stroke-opacity: 0.7; stroke-width: 0.6; stroke-linecap: square"/>
     </g>
     <g id="line2d_18">
      <defs>
       <path id="m1048e62452" d="M 0 0
L -3 0
" style="stroke: #000000; stroke-width: 0.8"/>
      </defs>
      <g>
       <use xlink:href="#m1048e62452" x="41.2659" y="235.961124" style="stroke: #000000; stroke-width: 0.8"/>
      </g>
     </g>
     <g id="text_9">
      <text style="font-size: 8px; font-family: 'Arial', 'Helvetica', 'DejaVu Sans', sans-serif; text-anchor: end" x="34.7659" y="238.824249" transform="rotate(-0 34.7659 238.824249)">1</text>
     </g>
    </g>
    <g id="ytick_2">
     <g id="line2d_19">
      <path d="M 41.2659 177.603229
L 350.9559 177.603229
" clip-path="url(#p73df8efa5d)" style="fill: none; stroke: #d6d6d6; stroke-opacity: 0.7; stroke-width: 0.6; stroke-linecap: square"/>
     </g>
     <g id="line2d_20">
      <g>
       <use xlink:href="#m1048e62452" x="41.2659" y="177.603229" style="stroke: #000000; stroke-width: 0.8"/>
      </g>
     </g>
     <g id="text_10">
      <text style="font-size: 8px; font-family: 'Arial', 'Helvetica', 'DejaVu Sans', sans-serif; text-anchor: end" x="34.7659" y="180.466354" transform="rotate(-0 34.7659 180.466354)">3</text>
     </g>
    </g>
    <g id="ytick_3">
     <g id="line2d_21">
      <path d="M 41.2659 119.245334
L 350.9559 119.245334
" clip-path="url(#p73df8efa5d)" style="fill: none; stroke: #d6d6d6; stroke-opacity: 0.7; stroke-width: 0.6; stroke-linecap: square"/>
     </g>
     <g id="line2d_22">
      <g>
       <use xlink:href="#m1048e62452" x="41.2659" y="119.245334" style="stroke: #000000; stroke-width: 0.8"/>
      </g>
     </g>
     <g id="text_11">
      <text style="font-size: 8px; font-family: 'Arial', 'Helvetica', 'DejaVu Sans', sans-serif; text-anchor: end" x="34.7659" y="122.108459" transform="rotate(-0 34.7659 122.108459)">5</text>
     </g>
    </g>
    <g id="ytick_4">
     <g id="line2d_23">
      <path d="M 41.2659 60.887439
L 350.9559 60.887439
" clip-path="url(#p73df8efa5d)" style="fill: none; stroke: #d6d6d6; stroke-opacity: 0.7; stroke-width: 0.6; stroke-linecap: square"/>
     </g>
     <g id="line2d_24">
      <g>
       <use xlink:href="#m1048e62452" x="41.2659" y="60.887439" style="stroke: #000000; stroke-width: 0.8"/>
      </g>
     </g>
     <g id="text_12">
      <text style="font-size: 8px; font-family: 'Arial', 'Helvetica', 'DejaVu Sans', sans-serif; text-anchor: end" x="34.7659" y="63.750564" transform="rotate(-0 34.7659 63.750564)">7</text>
     </g>
    </g>
    <g id="text_13">
     <text style="font-size: 9px; font-family: 'Arial', 'Helvetica', 'DejaVu Sans', sans-serif; text-anchor: middle" x="24.5284" y="138.21165" transform="rotate(-90 24.5284 138.21165)">Runtime / expert TC reference</text>
    </g>
   </g>
   <g id="patch_3">
    <path d="M 41.2659 249.09165
L 41.2659 27.33165
" style="fill: none; stroke: #000000; stroke-width: 0.8; stroke-linejoin: miter; stroke-linecap: square"/>
   </g>
   <g id="patch_4">
    <path d="M 41.2659 249.09165
L 350.9559 249.09165
" style="fill: none; stroke: #000000; stroke-width: 0.8; stroke-linejoin: miter; stroke-linecap: square"/>
   </g>
   <g id="text_14">
    <g id="patch_5">
     <path d="M 60.774429 215.051749
L 95.599039 215.051749
L 95.599039 198.968702
L 60.774429 198.968702
z
" style="fill: #ffffff; opacity: 0.78"/>
    </g>
    <text style="font-size: 7.5px; font-family: 'Arial', 'Helvetica', 'DejaVu Sans', sans-serif; fill: #555555" transform="translate(61.374429 205.028467)">Expert TC</text>
    <text style="font-size: 7.5px; font-family: 'Arial', 'Helvetica', 'DejaVu Sans', sans-serif; fill: #555555" transform="translate(61.374429 212.961124)">reference</text>
   </g>
   <g id="PathCollection_1">
    <defs>
     <path id="m535764c922" d="M 0 4.123106
C 1.09346 4.123106 2.142283 3.688669 2.915476 2.915476
C 3.688669 2.142283 4.123106 1.09346 4.123106 0
C 4.123106 -1.09346 3.688669 -2.142283 2.915476 -2.915476
C 2.142283 -3.688669 1.09346 -4.123106 0 -4.123106
C -1.09346 -4.123106 -2.142283 -3.688669 -2.915476 -2.915476
C -3.688669 -2.142283 -4.123106 -1.09346 -4.123106 0
C -4.123106 1.09346 -3.688669 2.142283 -2.915476 2.915476
C -2.142283 3.688669 -1.09346 4.123106 0 4.123106
z
" style="stroke: #222222; stroke-width: 0.8"/>
    </defs>
    <g clip-path="url(#p73df8efa5d)">
     <use xlink:href="#m535764c922" x="126.278841" y="201.019889" style="fill: #0072b2; stroke: #222222; stroke-width: 0.8"/>
    </g>
   </g>
   <g id="text_15">
    <g id="patch_6">
     <path d="M 52.774841 244.713651
L 80.592716 244.713651
L 80.592716 229.420626
L 52.774841 229.420626
z
" style="fill: #ffffff; opacity: 0.78"/>
    </g>
    <text style="font-weight: 700; font-size: 7.2px; font-family: 'Arial', 'Helvetica', 'DejaVu Sans', sans-serif; fill: #0072b2" transform="translate(53.278841 234.983751)">GPT-5.5</text>
    <text style="font-weight: 700; font-size: 7.2px; font-family: 'Arial', 'Helvetica', 'DejaVu Sans', sans-serif; fill: #0072b2" transform="translate(53.278841 242.694276)">(10/12)</text>
   </g>
   <g id="PathCollection_2">
    <defs>
     <path id="m0b76c75afc" d="M 0 4.123106
C 1.09346 4.123106 2.142283 3.688669 2.915476 2.915476
C 3.688669 2.142283 4.123106 1.09346 4.123106 0
C 4.123106 -1.09346 3.688669 -2.142283 2.915476 -2.915476
C 2.142283 -3.688669 1.09346 -4.123106 0 -4.123106
C -1.09346 -4.123106 -2.142283 -3.688669 -2.915476 -2.915476
C -3.688669 -2.142283 -4.123106 -1.09346 -4.123106 0
C -4.123106 1.09346 -3.688669 2.142283 -2.915476 2.915476
C -2.142283 3.688669 -1.09346 4.123106 0 4.123106
z
" style="stroke: #222222; stroke-width: 0.8"/>
    </defs>
    <g clip-path="url(#p73df8efa5d)">
     <use xlink:href="#m0b76c75afc" x="164.231047" y="180.818778" style="fill: #d55e00; stroke: #222222; stroke-width: 0.8"/>
    </g>
   </g>
   <g id="text_16">
    <g id="patch_7">
     <path d="M 97.727047 154.556416
L 129.539797 154.556416
L 129.539797 139.175641
L 97.727047 139.175641
z
" style="fill: #ffffff; opacity: 0.78"/>
    </g>
    <text style="font-weight: 700; font-size: 7.2px; font-family: 'Arial', 'Helvetica', 'DejaVu Sans', sans-serif; fill: #d55e00" transform="translate(98.231047 144.826516)">Opus-4.8</text>
    <text style="font-weight: 700; font-size: 7.2px; font-family: 'Arial', 'Helvetica', 'DejaVu Sans', sans-serif; fill: #d55e00" transform="translate(98.231047 152.537041)">(9/12)</text>
   </g>
   <g id="PathCollection_3">
    <defs>
     <path id="me21d2ac4ec" d="M 0 4.123106
C 1.09346 4.123106 2.142283 3.688669 2.915476 2.915476
C 3.688669 2.142283 4.123106 1.09346 4.123106 0
C 4.123106 -1.09346 3.688669 -2.142283 2.915476 -2.915476
C 2.142283 -3.688669 1.09346 -4.123106 0 -4.123106
C -1.09346 -4.123106 -2.142283 -3.688669 -2.915476 -2.915476
C -3.688669 -2.142283 -4.123106 -1.09346 -4.123106 0
C -4.123106 1.09346 -3.688669 2.142283 -2.915476 2.915476
C -2.142283 3.688669 -1.09346 4.123106 0 4.123106
z
" style="stroke: #222222; stroke-width: 0.8"/>
    </defs>
    <g clip-path="url(#p73df8efa5d)">
     <use xlink:href="#me21d2ac4ec" x="278.087665" y="72.086728" style="fill: #a05195; stroke: #222222; stroke-width: 0.8"/>
    </g>
   </g>
   <g id="text_17">
    <g id="patch_8">
     <path d="M 285.583665 91.78049
L 314.99229 91.78049
L 314.99229 76.487465
L 285.583665 76.487465
z
" style="fill: #ffffff; opacity: 0.78"/>
    </g>
    <text style="font-weight: 700; font-size: 7.2px; font-family: 'Arial', 'Helvetica', 'DejaVu Sans', sans-serif; fill: #a05195" transform="translate(286.087665 82.05059)">GLM-5.2</text>
    <text style="font-weight: 700; font-size: 7.2px; font-family: 'Arial', 'Helvetica', 'DejaVu Sans', sans-serif; fill: #a05195" transform="translate(286.087665 89.761115)">(6/12)</text>
   </g>
   <g id="PathCollection_4">
    <defs>
     <path id="ma7f80c117f" d="M 0 4.123106
C 1.09346 4.123106 2.142283 3.688669 2.915476 2.915476
C 3.688669 2.142283 4.123106 1.09346 4.123106 0
C 4.123106 -1.09346 3.688669 -2.142283 2.915476 -2.915476
C 2.142283 -3.688669 1.09346 -4.123106 0 -4.123106
C -1.09346 -4.123106 -2.142283 -3.688669 -2.915476 -2.915476
C -3.688669 -2.142283 -4.123106 -1.09346 -4.123106 0
C -4.123106 1.09346 -3.688669 2.142283 -2.915476 2.915476
C -2.142283 3.688669 -1.09346 4.123106 0 4.123106
z
" style="stroke: #222222; stroke-width: 0.8"/>
    </defs>
    <g clip-path="url(#p73df8efa5d)">
     <use xlink:href="#ma7f80c117f" x="240.135459" y="53.713007" style="fill: #e69f00; stroke: #222222; stroke-width: 0.8"/>
    </g>
   </g>
   <g id="text_18">
    <g id="patch_9">
     <path d="M 183.631459 52.40677
L 221.441584 52.40677
L 221.441584 37.113745
L 183.631459 37.113745
z
" style="fill: #ffffff; opacity: 0.78"/>
    </g>
    <text style="font-weight: 700; font-size: 7.2px; font-family: 'Arial', 'Helvetica', 'DejaVu Sans', sans-serif; fill: #e69f00" transform="translate(184.135459 42.67687)">Sonnet-4.6</text>
    <text style="font-weight: 700; font-size: 7.2px; font-family: 'Arial', 'Helvetica', 'DejaVu Sans', sans-serif; fill: #e69f00" transform="translate(184.135459 50.387395)">(7/12)</text>
   </g>
   <g id="PathCollection_5">
    <defs>
     <path id="me35cf23d1b" d="M 0 4.123106
C 1.09346 4.123106 2.142283 3.688669 2.915476 2.915476
C 3.688669 2.142283 4.123106 1.09346 4.123106 0
C 4.123106 -1.09346 3.688669 -2.142283 2.915476 -2.915476
C 2.142283 -3.688669 1.09346 -4.123106 0 -4.123106
C -1.09346 -4.123106 -2.142283 -3.688669 -2.915476 -2.915476
C -3.688669 -2.142283 -4.123106 -1.09346 -4.123106 0
C -4.123106 1.09346 -3.688669 2.142283 -2.915476 2.915476
C -2.142283 3.688669 -1.09346 4.123106 0 4.123106
z
" style="stroke: #222222; stroke-width: 0.8"/>
    </defs>
    <g clip-path="url(#p73df8efa5d)">
     <use xlink:href="#me35cf23d1b" x="126.278841" y="190.982535" style="fill: #2563eb; stroke: #222222; stroke-width: 0.8"/>
    </g>
   </g>
   <g id="text_19">
    <g id="patch_10">
     <path d="M 59.774841 160.767422
L 89.176716 160.767422
L 89.176716 145.197647
L 59.774841 145.197647
z
" style="fill: #ffffff; opacity: 0.78"/>
    </g>
    <text style="font-weight: 700; font-size: 7.2px; font-family: 'Arial', 'Helvetica', 'DejaVu Sans', sans-serif; fill: #2563eb" transform="translate(60.278841 150.943022)">Sol high</text>
    <text style="font-weight: 700; font-size: 7.2px; font-family: 'Arial', 'Helvetica', 'DejaVu Sans', sans-serif; fill: #2563eb" transform="translate(60.278841 158.748047)">(10/12)</text>
   </g>
   <g id="PathCollection_6">
    <defs>
     <path id="m9e080d868f" d="M 0 4.123106
C 1.09346 4.123106 2.142283 3.688669 2.915476 2.915476
C 3.688669 2.142283 4.123106 1.09346 4.123106 0
C 4.123106 -1.09346 3.688669 -2.142283 2.915476 -2.915476
C 2.142283 -3.688669 1.09346 -4.123106 0 -4.123106
C -1.09346 -4.123106 -2.142283 -3.688669 -2.915476 -2.915476
C -3.688669 -2.142283 -4.123106 -1.09346 -4.123106 0
C -4.123106 1.09346 -3.688669 2.142283 -2.915476 2.915476
C -2.142283 3.688669 -1.09346 4.123106 0 4.123106
z
" style="stroke: #222222; stroke-width: 0.8"/>
    </defs>
    <g clip-path="url(#p73df8efa5d)">
     <use xlink:href="#m9e080d868f" x="126.278841" y="204.671488" style="fill: #f97316; stroke: #222222; stroke-width: 0.8"/>
    </g>
   </g>
   <g id="text_20">
    <g id="patch_11">
     <path d="M 143.774841 234.36525
L 173.585091 234.36525
L 173.585091 219.072225
L 143.774841 219.072225
z
" style="fill: #ffffff; opacity: 0.78"/>
    </g>
    <text style="font-weight: 700; font-size: 7.2px; font-family: 'Arial', 'Helvetica', 'DejaVu Sans', sans-serif; fill: #f97316" transform="translate(144.278841 224.63535)">Sol ultra</text>
    <text style="font-weight: 700; font-size: 7.2px; font-family: 'Arial', 'Helvetica', 'DejaVu Sans', sans-serif; fill: #f97316" transform="translate(144.278841 232.345875)">(10/12)</text>
   </g>
   <g id="PathCollection_7">
    <defs>
     <path id="m05cc31ed7f" d="M 0 4.123106
C 1.09346 4.123106 2.142283 3.688669 2.915476 2.915476
C 3.688669 2.142283 4.123106 1.09346 4.123106 0
C 4.123106 -1.09346 3.688669 -2.142283 2.915476 -2.915476
C 2.142283 -3.688669 1.09346 -4.123106 0 -4.123106
C -1.09346 -4.123106 -2.142283 -3.688669 -2.915476 -2.915476
C -3.688669 -2.142283 -4.123106 -1.09346 -4.123106 0
C -4.123106 1.09346 -3.688669 2.142283 -2.915476 2.915476
C -2.142283 3.688669 -1.09346 4.123106 0 4.123106
z
" style="stroke: #222222; stroke-width: 0.8"/>
    </defs>
    <g clip-path="url(#p73df8efa5d)">
     <use xlink:href="#m05cc31ed7f" x="164.231047" y="186.305062" style="fill: #009e73; stroke: #222222; stroke-width: 0.8"/>
    </g>
   </g>
   <g id="text_21">
    <g id="patch_12">
     <path d="M 183.727047 228.046075
L 219.407547 228.046075
L 219.407547 212.56405
L 183.727047 212.56405
z
" style="fill: #ffffff; opacity: 0.78"/>
    </g>
    <text style="font-weight: 700; font-size: 7.2px; font-family: 'Arial', 'Helvetica', 'DejaVu Sans', sans-serif; fill: #009e73" transform="translate(184.231047 218.221675)">Terra high</text>
    <text style="font-weight: 700; font-size: 7.2px; font-family: 'Arial', 'Helvetica', 'DejaVu Sans', sans-serif; fill: #009e73" transform="translate(184.231047 226.0267)">(9/12)</text>
   </g>
   <g id="PathCollection_8">
    <defs>
     <path id="m9d12d2032c" d="M 0 4.123106
C 1.09346 4.123106 2.142283 3.688669 2.915476 2.915476
C 3.688669 2.142283 4.123106 1.09346 4.123106 0
C 4.123106 -1.09346 3.688669 -2.142283 2.915476 -2.915476
C 2.142283 -3.688669 1.09346 -4.123106 0 -4.123106
C -1.09346 -4.123106 -2.142283 -3.688669 -2.915476 -2.915476
C -3.688669 -2.142283 -4.123106 -1.09346 -4.123106 0
C -4.123106 1.09346 -3.688669 2.142283 -2.915476 2.915476
C -2.142283 3.688669 -1.09346 4.123106 0 4.123106
z
" style="stroke: #222222; stroke-width: 0.8"/>
    </defs>
    <g clip-path="url(#p73df8efa5d)">
     <use xlink:href="#m9d12d2032c" x="164.231047" y="128.243538" style="fill: #cc79a7; stroke: #222222; stroke-width: 0.8"/>
    </g>
   </g>
   <g id="text_22">
    <g id="patch_13">
     <path d="M 171.727047 127.984551
L 207.125172 127.984551
L 207.125172 112.502526
L 171.727047 112.502526
z
" style="fill: #ffffff; opacity: 0.78"/>
    </g>
    <text style="font-weight: 700; font-size: 7.2px; font-family: 'Arial', 'Helvetica', 'DejaVu Sans', sans-serif; fill: #cc79a7" transform="translate(172.231047 118.160151)">Luna high</text>
    <text style="font-weight: 700; font-size: 7.2px; font-family: 'Arial', 'Helvetica', 'DejaVu Sans', sans-serif; fill: #cc79a7" transform="translate(172.231047 125.965176)">(9/12)</text>
   </g>
   <g id="PathCollection_9">
    <defs>
     <path id="ma3a48b6542" d="M 0 4.123106
C 1.09346 4.123106 2.142283 3.688669 2.915476 2.915476
C 3.688669 2.142283 4.123106 1.09346 4.123106 0
C 4.123106 -1.09346 3.688669 -2.142283 2.915476 -2.915476
C 2.142283 -3.688669 1.09346 -4.123106 0 -4.123106
C -1.09346 -4.123106 -2.142283 -3.688669 -2.915476 -2.915476
C -3.688669 -2.142283 -4.123106 -1.09346 -4.123106 0
C -4.123106 1.09346 -3.688669 2.142283 -2.915476 2.915476
C -2.142283 3.688669 -1.09346 4.123106 0 4.123106
z
" style="stroke: #222222; stroke-width: 0.8"/>
    </defs>
    <g clip-path="url(#p73df8efa5d)">
     <use xlink:href="#ma3a48b6542" x="316.039871" y="163.705501" style="fill: #4d4d4d; stroke: #222222; stroke-width: 0.8"/>
    </g>
   </g>
   <g id="text_23">
    <g id="patch_14">
     <path d="M 247.535871 160.490388
L 300.156621 160.490388
L 300.156621 144.920613
L 247.535871 144.920613
z
" style="fill: #ffffff; opacity: 0.78"/>
    </g>
    <text style="font-weight: 700; font-size: 7.2px; font-family: 'Arial', 'Helvetica', 'DejaVu Sans', sans-serif; fill: #4d4d4d" transform="translate(248.039871 150.665988)">DeepSeek high</text>
    <text style="font-weight: 700; font-size: 7.2px; font-family: 'Arial', 'Helvetica', 'DejaVu Sans', sans-serif; fill: #4d4d4d" transform="translate(248.039871 158.471013)">(5/12)</text>
   </g>
   <g id="text_24">
    <text style="font-weight: 700; font-size: 12px; font-family: 'Arial', 'Helvetica', 'DejaVu Sans', sans-serif; text-anchor: start" x="7.2" y="15.935625" transform="rotate(-0 7.2 15.935625)">(b)</text>
   </g>
   <g id="text_25">
    <text style="font-weight: 700; font-size: 10px; font-family: 'Arial', 'Helvetica', 'DejaVu Sans', sans-serif; text-anchor: start" x="41.2659" y="21.33165" transform="rotate(-0 41.2659 21.33165)">Updated agent axis on TensorCircuit-NG</text>
   </g>
   <g id="PathCollection_10">
    <defs>
     <path id="m081c1dbd1e" d="M 0 3.807887
C 1.009863 3.807887 1.978501 3.406664 2.692582 2.692582
C 3.406664 1.978501 3.807887 1.009863 3.807887 0
C 3.807887 -1.009863 3.406664 -1.978501 2.692582 -2.692582
C 1.978501 -3.406664 1.009863 -3.807887 0 -3.807887
C -1.009863 -3.807887 -1.978501 -3.406664 -2.692582 -2.692582
C -3.406664 -1.978501 -3.807887 -1.009863 -3.807887 0
C -3.807887 1.009863 -3.406664 1.978501 -2.692582 2.692582
C -1.978501 3.406664 -1.009863 3.807887 0 3.807887
z
" style="stroke: #333333"/>
    </defs>
    <g clip-path="url(#p73df8efa5d)">
     <use xlink:href="#m081c1dbd1e" x="50.374429" y="235.961124" style="fill: #bdbdbd; stroke: #333333"/>
    </g>
   </g>
  </g>
 </g>
 <defs>
  <clipPath id="p73df8efa5d">
   <rect x="41.2659" y="27.33165" width="309.69" height="221.76"/>
  </clipPath>
 </defs>
</svg>
